<?xml version="1.0" encoding="UTF-8"?>
<svg width="121px" height="133px" viewBox="0 0 121 133" version="1.1" xmlns="http://www.w3.org/2000/svg" xmlns:xlink="http://www.w3.org/1999/xlink" style="background: #FFFFFF;">
    <title>item-course-1</title>
    <g id="Page-1" stroke="none" stroke-width="1" fill="none" fill-rule="evenodd">
        <g id="List-Item" transform="translate(3.000000, 3.000000)">
            <rect id="Rectangle" fill="#D8D8D8" x="0.5" y="0" width="114" height="60"></rect>
            <circle id="Oval" stroke="#979797" fill="#979797" cx="58" cy="59" r="9.5"></circle>
            <line x1="47" y1="72.5" x2="68.5" y2="72.5" id="Line-2" stroke="#979797" stroke-width="1.5" stroke-linecap="square"></line>
            <polyline id="Path-3" stroke="#E2E2E2" points="1 60 1 126 114 126 114 60"></polyline>
            <line x1="8" y1="106.630486" x2="108.969039" y2="106.369514" id="Line-4" stroke="#E9E9E9" stroke-width="0.6" stroke-linecap="square"></line>
            <line x1="10" y1="83.5" x2="100" y2="83.5" id="Line-3" stroke="#979797" stroke-width="2" stroke-linecap="square"></line>
            <path d="M31,89.5 C61.8710712,89.5 79.9905757,89.5 85.3585134,89.5 C90.726451,89.5 82.9288438,89.5 61.9656915,89.5" id="Line-3-Copy" stroke="#979797" stroke-width="2" stroke-linecap="square"></path>
            <rect id="Rectangle" fill="#D8D8D8" x="7" y="112" width="7" height="8"></rect>
            <text id="5" font-family="Helvetica-Bold, Helvetica" font-size="9" font-weight="bold" fill="#333333">
                <tspan x="18" y="119">5</tspan>
            </text>
            <rect id="Rectangle" fill="#D8D8D8" x="37" y="112" width="7" height="8"></rect>
            <text id="10" font-family="Helvetica-Bold, Helvetica" font-size="9" font-weight="bold" fill="#333333">
                <tspan x="46" y="119">10</tspan>
            </text>
            <text id="$100" font-family="Helvetica-Bold, Helvetica" font-size="9" font-weight="bold" fill="#E10000">
                <tspan x="90" y="118">$100</tspan>
            </text>
            <line x1="49.5" y1="106.5" x2="66.5" y2="106.5" id="Line-5" stroke="#979797" stroke-width="2" stroke-linecap="square"></line>
        </g>
    </g>
</svg>