<svg width="160" height="118" viewBox="0 0 160 118" fill="none" xmlns="http://www.w3.org/2000/svg">
<rect width="160" height="118" fill="white"/>
<g id="Single-3" clip-path="url(#clip0_0_1)">
<g id="Rectangle" filter="url(#filter0_d_0_1)">
<rect x="5" y="4.5" width="150" height="109" fill="white"/>
</g>
<circle id="Oval" cx="19.2241" cy="26.2758" r="7.25862" fill="#979797" stroke="#979797"/>
<path id="Line 2" d="M32.1552 29.5086H50.2586" stroke="#717171" stroke-width="2" stroke-linecap="square"/>
<path id="Line 2_2" d="M60.6035 29.5086H78.1744" stroke="#717171" stroke-width="2" stroke-linecap="square"/>
<path id="Line 2_3" d="M32.1552 23.0431H50.2586" stroke="#979797" stroke-linecap="square"/>
<path id="Line 2_4" d="M60.6035 23.0431H77.4138" stroke="#979797" stroke-linecap="square"/>
<path id="Line 3" d="M12.7586 10.1121H121.379" stroke="#717171" stroke-width="2" stroke-linecap="square"/>
<rect id="Rectangle_2" opacity="0.6" x="11.4655" y="92.5172" width="76.2931" height="2.58621" fill="#BFBEBE"/>
<rect id="Rectangle_3" opacity="0.6" x="11.4655" y="97.6896" width="85.3448" height="2.58621" fill="#A2A1A1"/>
<path id="Rectangle_4" opacity="0.6" fill-rule="evenodd" clip-rule="evenodd" d="M11.4655 102.862H47.0442H103.276V105.448H47.0449H11.4655V102.862Z" fill="#838282"/>
<path id="Rectangle_5" opacity="0.6" fill-rule="evenodd" clip-rule="evenodd" d="M11.4655 108.034H47.5453H104.569V110.621H47.546H11.4655V108.034Z" fill="#656464"/>
<rect id="Rectangle_6" x="11.4655" y="36.6207" width="140.948" height="34.9138" fill="#D8D8D8"/>
<rect id="Rectangle_7" x="131.724" y="19.8104" width="20.6897" height="9.05172" rx="3" fill="#232323"/>
<path id="Buy" d="M139.078 22.7245V23.3593H139.785C139.912 23.3593 140.014 23.3359 140.092 23.289C140.171 23.2408 140.211 23.1562 140.211 23.0351C140.211 22.901 140.159 22.8124 140.055 22.7695C139.965 22.7395 139.85 22.7245 139.711 22.7245H139.078ZM139.078 23.8359V24.6035H139.785C139.912 24.6035 140.01 24.5865 140.08 24.5527C140.208 24.4902 140.272 24.3704 140.272 24.1933C140.272 24.0436 140.21 23.9407 140.086 23.8847C140.017 23.8535 139.92 23.8372 139.795 23.8359H139.078ZM139.903 22.2245C140.255 22.2298 140.505 22.332 140.653 22.5312C140.741 22.6536 140.785 22.8001 140.785 22.9706C140.785 23.1464 140.741 23.2877 140.653 23.3945C140.603 23.4544 140.53 23.5091 140.434 23.5585C140.581 23.6119 140.692 23.6966 140.766 23.8124C140.841 23.9283 140.879 24.0689 140.879 24.2343C140.879 24.4049 140.836 24.5579 140.75 24.6933C140.695 24.7831 140.627 24.8587 140.545 24.9199C140.453 24.9902 140.343 25.0384 140.217 25.0644C140.092 25.0904 139.956 25.1035 139.809 25.1035H138.504V22.2245H139.903ZM141.895 22.9745V24.2578C141.895 24.3788 141.909 24.47 141.938 24.5312C141.988 24.6393 142.088 24.6933 142.237 24.6933C142.427 24.6933 142.557 24.6165 142.627 24.4628C142.664 24.3795 142.682 24.2695 142.682 24.1328V22.9745H143.246V25.1035H142.705V24.8027C142.7 24.8092 142.687 24.8287 142.666 24.8613C142.645 24.8938 142.621 24.9225 142.592 24.9472C142.505 25.0253 142.42 25.0787 142.338 25.1074C142.257 25.136 142.162 25.1503 142.053 25.1503C141.738 25.1503 141.526 25.037 141.416 24.8105C141.355 24.6855 141.324 24.5012 141.324 24.2578V22.9745H141.895ZM143.871 25.5117L143.942 25.5156C143.996 25.5182 144.048 25.5162 144.098 25.5097C144.147 25.5032 144.189 25.4882 144.223 25.4648C144.255 25.4426 144.285 25.3964 144.313 25.3261C144.341 25.2558 144.353 25.2128 144.348 25.1972L143.567 22.9745H144.186L144.651 24.5449L145.09 22.9745H145.682L144.951 25.0683C144.811 25.4719 144.699 25.7219 144.617 25.8183C144.535 25.916 144.371 25.9648 144.125 25.9648C144.076 25.9648 144.036 25.9641 144.006 25.9628C143.976 25.9628 143.931 25.9609 143.871 25.957V25.5117Z" fill="white"/>
<path id="$123" d="M105.983 26.0144C106.214 25.9851 106.383 25.9324 106.488 25.8562C106.673 25.7214 106.765 25.4885 106.765 25.1575C106.765 24.9055 106.679 24.7063 106.506 24.5598C106.403 24.4749 106.229 24.387 105.983 24.2961V26.0144ZM105.565 21.4221C105.311 21.428 105.122 21.4968 104.999 21.6287C104.875 21.7576 104.814 21.9348 104.814 22.1604C104.814 22.4065 104.906 22.6013 105.091 22.7449C105.193 22.824 105.352 22.8972 105.565 22.9646V21.4221ZM105.992 27.8777H105.565V27.0032C104.988 26.9387 104.558 26.8127 104.273 26.6252C103.772 26.2883 103.526 25.7141 103.535 24.9026H104.722C104.763 25.2717 104.82 25.5193 104.893 25.6453C105.007 25.8416 105.231 25.969 105.565 26.0276V24.1511L105.209 24.0457C104.65 23.8816 104.254 23.6531 104.023 23.3601C103.794 23.0671 103.68 22.7141 103.68 22.301C103.68 22.0286 103.724 21.781 103.812 21.5583C103.903 21.3357 104.029 21.1438 104.19 20.9827C104.398 20.7747 104.629 20.6311 104.884 20.552C105.04 20.5022 105.267 20.4656 105.565 20.4421V19.8577H105.983V20.4509C106.46 20.489 106.835 20.6062 107.108 20.8025C107.603 21.116 107.859 21.6243 107.877 22.3274H106.721C106.698 22.0667 106.654 21.8762 106.589 21.7561C106.478 21.5481 106.276 21.4338 105.983 21.4133V23.0876C106.68 23.3279 107.149 23.5403 107.389 23.7249C107.785 24.0325 107.982 24.4661 107.982 25.0256C107.982 25.7639 107.711 26.3 107.169 26.634C106.838 26.8391 106.446 26.9592 105.992 26.9944V27.8777ZM108.91 22.4417V21.5891C109.305 21.5715 109.582 21.5452 109.74 21.51C109.992 21.4543 110.197 21.343 110.355 21.176C110.464 21.0618 110.546 20.9094 110.602 20.719C110.634 20.6047 110.65 20.5198 110.65 20.4641H111.691V26.8362H110.408V22.4417H108.91ZM113.577 26.8362C113.588 26.3792 113.687 25.9617 113.871 25.5837C114.05 25.1589 114.472 24.7092 115.137 24.2346C115.714 23.8215 116.087 23.5256 116.257 23.3469C116.518 23.0686 116.648 22.7639 116.648 22.4329C116.648 22.1633 116.574 21.9392 116.424 21.7605C116.275 21.5818 116.061 21.4924 115.783 21.4924C115.402 21.4924 115.143 21.6345 115.005 21.9187C114.926 22.0828 114.879 22.3435 114.864 22.7009H113.647C113.667 22.1589 113.766 21.7209 113.941 21.387C114.275 20.7512 114.869 20.4333 115.721 20.4333C116.395 20.4333 116.931 20.6208 117.33 20.9958C117.728 21.3679 117.927 21.8616 117.927 22.4768C117.927 22.9485 117.787 23.3674 117.505 23.7336C117.321 23.9768 117.018 24.2478 116.596 24.5466L116.095 24.9026C115.781 25.1252 115.566 25.2864 115.449 25.386C115.334 25.4856 115.238 25.6013 115.159 25.7332H117.94V26.8362H113.577ZM119.773 24.8806C119.773 25.1355 119.814 25.3464 119.896 25.5134C120.048 25.821 120.325 25.9749 120.727 25.9749C120.973 25.9749 121.187 25.8914 121.368 25.7244C121.553 25.5544 121.645 25.3113 121.645 24.9949C121.645 24.5759 121.475 24.2961 121.135 24.1555C120.942 24.0764 120.637 24.0369 120.221 24.0369V23.1404C120.628 23.1345 120.913 23.095 121.074 23.0217C121.352 22.8987 121.491 22.6497 121.491 22.2747C121.491 22.0315 121.419 21.8337 121.276 21.6814C121.135 21.5291 120.936 21.4529 120.678 21.4529C120.382 21.4529 120.164 21.5466 120.023 21.7341C119.886 21.9216 119.82 22.1721 119.826 22.4856H118.657C118.668 22.1692 118.723 21.8689 118.819 21.5847C118.922 21.3357 119.083 21.1057 119.303 20.8948C119.467 20.7454 119.662 20.6311 119.887 20.552C120.113 20.4729 120.39 20.4333 120.718 20.4333C121.327 20.4333 121.818 20.5916 122.19 20.908C122.565 21.2214 122.752 21.6433 122.752 22.1736C122.752 22.5486 122.641 22.865 122.418 23.1228C122.278 23.2839 122.131 23.3938 121.979 23.4524C122.093 23.4524 122.257 23.5505 122.471 23.7468C122.791 24.0427 122.95 24.447 122.95 24.9597C122.95 25.4988 122.763 25.9734 122.388 26.3835C122.016 26.7908 121.463 26.9944 120.731 26.9944C119.829 26.9944 119.202 26.7 118.85 26.1111C118.666 25.7976 118.563 25.3875 118.542 24.8806H119.773Z" fill="#E10000"/>
<rect id="Rectangle_8" x="11.4655" y="74.1207" width="37.5" height="1.2931" fill="#343434"/>
<path id="Overview" d="M21.2953 82.0529C21.5931 82.0529 21.8291 81.943 22.0033 81.7233C22.1791 81.5035 22.267 81.191 22.267 80.7858C22.267 80.3821 22.1791 80.0704 22.0033 79.8507C21.8291 79.6294 21.5931 79.5187 21.2953 79.5187C20.9974 79.5187 20.7598 79.6285 20.5824 79.8483C20.405 80.068 20.3163 80.3805 20.3163 80.7858C20.3163 81.191 20.405 81.5035 20.5824 81.7233C20.7598 81.943 20.9974 82.0529 21.2953 82.0529ZM23.0189 80.7858C23.0189 81.4319 22.8374 81.9267 22.4745 82.2701C22.2027 82.5501 21.8096 82.6901 21.2953 82.6901C20.781 82.6901 20.3879 82.5501 20.1161 82.2701C19.7515 81.9267 19.5692 81.4319 19.5692 80.7858C19.5692 80.1266 19.7515 79.6318 20.1161 79.3014C20.3879 79.0214 20.781 78.8815 21.2953 78.8815C21.8096 78.8815 22.2027 79.0214 22.4745 79.3014C22.8374 79.6318 23.0189 80.1266 23.0189 80.7858ZM25.1796 79.9288H25.9266L24.9672 82.59H24.2323L23.2777 79.9288H24.059L24.6132 81.8917L25.1796 79.9288ZM27.3719 80.4318C27.2108 80.4318 27.0855 80.4822 26.996 80.5831C26.9081 80.684 26.8527 80.8208 26.83 80.9933H27.9115C27.9001 80.8094 27.844 80.6702 27.743 80.5758C27.6438 80.4798 27.5201 80.4318 27.3719 80.4318ZM27.3719 79.858C27.5933 79.858 27.7927 79.8995 27.9701 79.9825C28.1475 80.0656 28.294 80.1966 28.4095 80.3756C28.5137 80.5335 28.5813 80.7166 28.6122 80.9249C28.6301 81.047 28.6374 81.2228 28.6342 81.4523H26.8129C26.8226 81.7192 26.9065 81.9064 27.0643 82.0138C27.1604 82.0805 27.2759 82.1139 27.411 82.1139C27.5542 82.1139 27.6706 82.0732 27.7601 81.9918C27.809 81.9479 27.8521 81.8868 27.8895 81.8087H28.6C28.5821 81.9666 28.4999 82.1269 28.3534 82.2897C28.1255 82.5485 27.8065 82.6779 27.3964 82.6779C27.0578 82.6779 26.7592 82.5688 26.5004 82.3507C26.2416 82.1326 26.1122 81.7778 26.1122 81.2863C26.1122 80.8256 26.2286 80.4725 26.4613 80.2267C26.6957 79.9809 26.9992 79.858 27.3719 79.858ZM30.5507 79.8654C30.5637 79.8654 30.5743 79.8662 30.5824 79.8678C30.5922 79.8678 30.6125 79.8686 30.6434 79.8702V80.5831C30.5995 80.5782 30.5604 80.575 30.5262 80.5734C30.4921 80.5717 30.4644 80.5709 30.4432 80.5709C30.1633 80.5709 29.9753 80.6621 29.8793 80.8444C29.8256 80.9469 29.7987 81.1048 29.7987 81.318V82.59H29.098V79.9288H29.7621V80.3927C29.8695 80.2153 29.9631 80.094 30.0428 80.0289C30.1731 79.9199 30.3423 79.8654 30.5507 79.8654ZM32.6942 79.9288H33.4413L32.4818 82.59H31.7469L30.7924 79.9288H31.5736L32.1278 81.8917L32.6942 79.9288ZM34.5521 79.6115H33.8466V78.9694H34.5521V79.6115ZM33.8466 79.9288H34.5521V82.59H33.8466V79.9288ZM36.2782 80.4318C36.1171 80.4318 35.9917 80.4822 35.9022 80.5831C35.8143 80.684 35.759 80.8208 35.7362 80.9933H36.8177C36.8064 80.8094 36.7502 80.6702 36.6493 80.5758C36.55 80.4798 36.4263 80.4318 36.2782 80.4318ZM36.2782 79.858C36.4996 79.858 36.6989 79.8995 36.8763 79.9825C37.0538 80.0656 37.2002 80.1966 37.3158 80.3756C37.42 80.5335 37.4875 80.7166 37.5184 80.9249C37.5363 81.047 37.5437 81.2228 37.5404 81.4523H35.7191C35.7289 81.7192 35.8127 81.9064 35.9706 82.0138C36.0666 82.0805 36.1822 82.1139 36.3173 82.1139C36.4605 82.1139 36.5769 82.0732 36.6664 81.9918C36.7152 81.9479 36.7583 81.8868 36.7958 81.8087H37.5062C37.4883 81.9666 37.4061 82.1269 37.2596 82.2897C37.0318 82.5485 36.7128 82.6779 36.3026 82.6779C35.9641 82.6779 35.6654 82.5688 35.4066 82.3507C35.1478 82.1326 35.0184 81.7778 35.0184 81.2863C35.0184 80.8256 35.1348 80.4725 35.3676 80.2267C35.6019 79.9809 35.9055 79.858 36.2782 79.858ZM39.2665 79.9288H39.972L40.3773 81.8453L40.7924 79.9288H41.5175L40.746 82.59H40.0306L39.6132 80.6515L39.1908 82.59H38.4681L37.7211 79.9288H38.4681L38.8832 81.838L39.2665 79.9288Z" fill="black"/>
<rect id="Rectangle_9" x="11.4655" y="85.7586" width="140.948" height="1.2931" fill="#EAEAEA"/>
<path id="Curriculum" d="M64.9906 80.8162C64.9906 80.1879 65.159 79.7037 65.4959 79.3635C65.7889 79.0673 66.1616 78.9192 66.6141 78.9192C67.2196 78.9192 67.6623 79.1178 67.9422 79.5149C68.0969 79.7379 68.1799 79.9617 68.1913 80.1863H67.4393C67.3905 80.0138 67.3278 79.8835 67.2513 79.7957C67.1146 79.6394 66.912 79.5613 66.6434 79.5613C66.37 79.5613 66.1543 79.672 65.9964 79.8933C65.8386 80.113 65.7596 80.4247 65.7596 80.8284C65.7596 81.232 65.8426 81.5347 66.0086 81.7366C66.1763 81.9368 66.3887 82.0369 66.6458 82.0369C66.9095 82.0369 67.1105 81.9506 67.2489 81.7781C67.3254 81.6853 67.3888 81.5461 67.4393 81.3606H68.1839C68.1188 81.7528 67.952 82.0719 67.6834 82.3176C67.4165 82.5634 67.0739 82.6863 66.6556 82.6863C66.138 82.6863 65.7311 82.5203 65.4349 82.1882C65.1387 81.8546 64.9906 81.3972 64.9906 80.8162ZM69.3973 79.925V81.5291C69.3973 81.6804 69.4152 81.7944 69.451 81.8708C69.5145 82.0059 69.639 82.0735 69.8246 82.0735C70.0622 82.0735 70.2249 81.9775 70.3128 81.7854C70.3584 81.6812 70.3812 81.5437 70.3812 81.3728V79.925H71.0868V82.5862H70.4105V82.2102C70.404 82.2183 70.3877 82.2428 70.3617 82.2834C70.3356 82.3241 70.3047 82.3599 70.2689 82.3909C70.1598 82.4885 70.054 82.5553 69.9515 82.5911C69.8506 82.6269 69.7318 82.6448 69.5951 82.6448C69.2012 82.6448 68.9359 82.5032 68.7992 82.22C68.7227 82.0637 68.6844 81.8334 68.6844 81.5291V79.925H69.3973ZM73.2059 79.8616C73.2189 79.8616 73.2295 79.8624 73.2376 79.864C73.2474 79.864 73.2678 79.8648 73.2987 79.8665V80.5793C73.2547 80.5745 73.2157 80.5712 73.1815 80.5696C73.1473 80.568 73.1196 80.5671 73.0985 80.5671C72.8185 80.5671 72.6305 80.6583 72.5345 80.8406C72.4808 80.9431 72.4539 81.101 72.4539 81.3142V82.5862H71.7533V79.925H72.4173V80.3889C72.5247 80.2115 72.6183 80.0903 72.6981 80.0251C72.8283 79.9161 72.9976 79.8616 73.2059 79.8616ZM75.1541 79.8616C75.1672 79.8616 75.1777 79.8624 75.1859 79.864C75.1956 79.864 75.216 79.8648 75.2469 79.8665V80.5793C75.203 80.5745 75.1639 80.5712 75.1297 80.5696C75.0956 80.568 75.0679 80.5671 75.0467 80.5671C74.7668 80.5671 74.5788 80.6583 74.4828 80.8406C74.429 80.9431 74.4022 81.101 74.4022 81.3142V82.5862H73.7015V79.925H74.3656V80.3889C74.473 80.2115 74.5666 80.0903 74.6463 80.0251C74.7765 79.9161 74.9458 79.8616 75.1541 79.8616ZM76.3724 79.6077H75.6668V78.9656H76.3724V79.6077ZM75.6668 79.925H76.3724V82.5862H75.6668V79.925ZM78.638 80.8796C78.625 80.7804 78.5916 80.6908 78.5379 80.6111C78.4598 80.5037 78.3386 80.45 78.1742 80.45C77.9398 80.45 77.7795 80.5663 77.6932 80.7991C77.6476 80.9228 77.6248 81.0872 77.6248 81.2922C77.6248 81.4875 77.6476 81.6446 77.6932 81.7634C77.7762 81.9848 77.9325 82.0955 78.162 82.0955C78.3247 82.0955 78.4403 82.0515 78.5086 81.9636C78.577 81.8757 78.6185 81.7618 78.6331 81.6218H79.3436C79.3273 81.8334 79.2508 82.0336 79.1141 82.2224C78.896 82.5268 78.5729 82.679 78.1449 82.679C77.7168 82.679 77.4019 82.552 77.2 82.2981C76.9982 82.0442 76.8973 81.7146 76.8973 81.3093C76.8973 80.852 77.0088 80.4963 77.2318 80.2424C77.4548 79.9885 77.7624 79.8616 78.1546 79.8616C78.4883 79.8616 78.7609 79.9364 78.9725 80.0862C79.1857 80.2359 79.3119 80.5004 79.3509 80.8796H78.638ZM80.5252 79.925V81.5291C80.5252 81.6804 80.5431 81.7944 80.5789 81.8708C80.6424 82.0059 80.7669 82.0735 80.9525 82.0735C81.1901 82.0735 81.3529 81.9775 81.4408 81.7854C81.4863 81.6812 81.5091 81.5437 81.5091 81.3728V79.925H82.2147V82.5862H81.5384V82.2102C81.5319 82.2183 81.5156 82.2428 81.4896 82.2834C81.4636 82.3241 81.4326 82.3599 81.3968 82.3909C81.2878 82.4885 81.182 82.5553 81.0794 82.5911C80.9785 82.6269 80.8597 82.6448 80.723 82.6448C80.3291 82.6448 80.0638 82.5032 79.9271 82.22C79.8506 82.0637 79.8123 81.8334 79.8123 81.5291V79.925H80.5252ZM83.599 82.5862H82.9032V78.9875H83.599V82.5862ZM84.9735 79.925V81.5291C84.9735 81.6804 84.9914 81.7944 85.0272 81.8708C85.0907 82.0059 85.2152 82.0735 85.4007 82.0735C85.6384 82.0735 85.8011 81.9775 85.889 81.7854C85.9346 81.6812 85.9574 81.5437 85.9574 81.3728V79.925H86.6629V82.5862H85.9867V82.2102C85.9802 82.2183 85.9639 82.2428 85.9378 82.2834C85.9118 82.3241 85.8809 82.3599 85.8451 82.3909C85.736 82.4885 85.6302 82.5553 85.5277 82.5911C85.4268 82.6269 85.308 82.6448 85.1712 82.6448C84.7774 82.6448 84.5121 82.5032 84.3753 82.22C84.2988 82.0637 84.2606 81.8334 84.2606 81.5291V79.925H84.9735ZM90.3104 79.8665C90.4276 79.8665 90.5431 79.8892 90.6571 79.9348C90.771 79.9804 90.8744 80.0601 90.9671 80.1741C91.042 80.2668 91.0925 80.3808 91.1185 80.5159C91.1348 80.6054 91.1429 80.7364 91.1429 80.9089L91.138 82.5862H90.4251V80.8918C90.4251 80.7909 90.4089 80.7079 90.3763 80.6428C90.3145 80.5191 90.2005 80.4573 90.0345 80.4573C89.8425 80.4573 89.7098 80.537 89.6366 80.6965C89.5991 80.7812 89.5804 80.8829 89.5804 81.0017V82.5862H88.8797V81.0017C88.8797 80.8438 88.8635 80.7291 88.8309 80.6575C88.7723 80.5289 88.6576 80.4646 88.4867 80.4646C88.2881 80.4646 88.1546 80.5289 88.0863 80.6575C88.0488 80.7307 88.0301 80.8398 88.0301 80.9846V82.5862H87.3246V79.9299H88.0008V80.3181C88.0871 80.1798 88.1685 80.0813 88.245 80.0227C88.3801 79.9185 88.555 79.8665 88.7699 79.8665C88.9733 79.8665 89.1377 79.9112 89.263 80.0007C89.3639 80.0837 89.4404 80.1903 89.4925 80.3206C89.5837 80.1643 89.6968 80.0496 89.8319 79.9763C89.9751 79.9031 90.1346 79.8665 90.3104 79.8665Z" fill="black"/>
<rect id="Rectangle_10" x="111.034" y="78" width="5.17241" height="5.17241" fill="#8A8A8A"/>
<rect id="Rectangle_11" x="56.7241" y="78" width="5.17241" height="5.17241" fill="#8A8A8A"/>
<rect id="Rectangle_12" x="12.7586" y="78" width="5.17241" height="5.17241" fill="#8A8A8A"/>
<path id="Review" d="M119.926 79.6125V80.5793H120.778C120.947 80.5793 121.074 80.5598 121.159 80.5208C121.309 80.4524 121.383 80.3173 121.383 80.1155C121.383 79.8974 121.311 79.7509 121.166 79.676C121.085 79.6337 120.963 79.6125 120.8 79.6125H119.926ZM120.956 78.9875C121.208 78.9924 121.402 79.0234 121.537 79.0803C121.674 79.1373 121.79 79.2211 121.884 79.3318C121.962 79.4229 122.024 79.5238 122.069 79.6345C122.115 79.7452 122.138 79.8713 122.138 80.0129C122.138 80.1838 122.095 80.3523 122.008 80.5183C121.922 80.6827 121.78 80.7991 121.581 80.8674C121.747 80.9342 121.864 81.0294 121.933 81.1531C122.003 81.2751 122.038 81.4623 122.038 81.7146V81.9563C122.038 82.1207 122.044 82.2322 122.057 82.2908C122.077 82.3835 122.122 82.4519 122.194 82.4958V82.5862H121.366C121.344 82.5064 121.327 82.4421 121.318 82.3933C121.298 82.2924 121.287 82.189 121.286 82.0833L121.281 81.7488C121.278 81.5193 121.235 81.3663 121.154 81.2898C121.074 81.2133 120.924 81.175 120.702 81.175H119.926V82.5862H119.191V78.9875H120.956ZM123.781 80.428C123.62 80.428 123.494 80.4784 123.405 80.5793C123.317 80.6803 123.262 80.817 123.239 80.9895H124.32C124.309 80.8056 124.253 80.6664 124.152 80.572C124.053 80.476 123.929 80.428 123.781 80.428ZM123.781 79.8542C124.002 79.8542 124.202 79.8958 124.379 79.9788C124.556 80.0618 124.703 80.1928 124.818 80.3718C124.923 80.5297 124.99 80.7128 125.021 80.9211C125.039 81.0432 125.046 81.219 125.043 81.4485H123.222C123.232 81.7154 123.315 81.9026 123.473 82.01C123.569 82.0767 123.685 82.1101 123.82 82.1101C123.963 82.1101 124.08 82.0694 124.169 81.988C124.218 81.9441 124.261 81.8831 124.298 81.8049H125.009C124.991 81.9628 124.909 82.1231 124.762 82.2859C124.534 82.5447 124.215 82.6741 123.805 82.6741C123.467 82.6741 123.168 82.565 122.909 82.3469C122.651 82.1288 122.521 81.774 122.521 81.2825C122.521 80.8219 122.637 80.4687 122.87 80.2229C123.105 79.9771 123.408 79.8542 123.781 79.8542ZM127.155 79.925H127.902L126.943 82.5862H126.208L125.253 79.925H126.034L126.589 81.8879L127.155 79.925ZM129.013 79.6077H128.307V78.9656H129.013V79.6077ZM128.307 79.925H129.013V82.5862H128.307V79.925ZM130.739 80.428C130.578 80.428 130.452 80.4784 130.363 80.5793C130.275 80.6803 130.22 80.817 130.197 80.9895H131.278C131.267 80.8056 131.211 80.6664 131.11 80.572C131.011 80.476 130.887 80.428 130.739 80.428ZM130.739 79.8542C130.96 79.8542 131.16 79.8958 131.337 79.9788C131.514 80.0618 131.661 80.1928 131.776 80.3718C131.881 80.5297 131.948 80.7128 131.979 80.9211C131.997 81.0432 132.004 81.219 132.001 81.4485H130.18C130.19 81.7154 130.273 81.9026 130.431 82.01C130.527 82.0767 130.643 82.1101 130.778 82.1101C130.921 82.1101 131.038 82.0694 131.127 81.988C131.176 81.9441 131.219 81.8831 131.256 81.8049H131.967C131.949 81.9628 131.867 82.1231 131.72 82.2859C131.492 82.5447 131.173 82.6741 130.763 82.6741C130.425 82.6741 130.126 82.565 129.867 82.3469C129.609 82.1288 129.479 81.774 129.479 81.2825C129.479 80.8219 129.595 80.4687 129.828 80.2229C130.063 79.9771 130.366 79.8542 130.739 79.8542ZM133.727 79.925H134.433L134.838 81.8416L135.253 79.925H135.978L135.207 82.5862H134.491L134.074 80.6477L133.651 82.5862H132.929L132.182 79.925H132.929L133.344 81.8342L133.727 79.925Z" fill="black"/>
<path id="Line 6" d="M124.556 94.1638H150.53" stroke="#979797" stroke-linecap="square"/>
<path id="Line 6_2" d="M124.556 99.3362H150.53" stroke="#979797" stroke-linecap="square"/>
<path id="Line 6_3" d="M124.556 104.509H150.53" stroke="#979797" stroke-linecap="square"/>
<path id="Line 6_4" d="M124.556 109.681H150.53" stroke="#979797" stroke-linecap="square"/>
<path id="Line 7" d="M115.56 90.5776V112.56" stroke="#F0F0F0" stroke-width="0.5" stroke-linecap="square"/>
</g>
<defs>
<filter id="filter0_d_0_1" x="3" y="2.5" width="154" height="113" filterUnits="userSpaceOnUse" color-interpolation-filters="sRGB">
<feFlood flood-opacity="0" result="BackgroundImageFix"/>
<feColorMatrix in="SourceAlpha" type="matrix" values="0 0 0 0 0 0 0 0 0 0 0 0 0 0 0 0 0 0 127 0" result="hardAlpha"/>
<feOffset/>
<feGaussianBlur stdDeviation="1"/>
<feColorMatrix type="matrix" values="0 0 0 0 0.611979 0 0 0 0 0.611979 0 0 0 0 0.611979 0 0 0 0.5 0"/>
<feBlend mode="normal" in2="BackgroundImageFix" result="effect1_dropShadow_0_1"/>
<feBlend mode="normal" in="SourceGraphic" in2="effect1_dropShadow_0_1" result="shape"/>
</filter>
<clipPath id="clip0_0_1">
<rect width="150" height="110" fill="white" transform="translate(5 4)"/>
</clipPath>
</defs>
</svg>
