<svg width="160" height="118" viewBox="0 0 160 118" fill="none" xmlns="http://www.w3.org/2000/svg">
<rect width="160" height="118" fill="white"/>
<g id="Single-1" clip-path="url(#clip0_0_1)">
<circle id="Oval" cx="13.3333" cy="22.8718" r="7.83333" fill="#979797" stroke="#979797"/>
<path id="Line 2" d="M26.7949 25.4359H46.0256" stroke="#717171" stroke-width="2" stroke-linecap="square"/>
<path id="Line 2_2" d="M57.5641 25.4359H76.2293" stroke="#717171" stroke-width="2" stroke-linecap="square"/>
<path id="Line 2_3" d="M26.7949 19.0257H46.0256" stroke="#979797" stroke-linecap="square"/>
<path id="Line 2_4" d="M57.5641 19.0257H75.5128" stroke="#979797" stroke-linecap="square"/>
<path id="Line 3" d="M6.28205 4.92308H121.667" stroke="#717171" stroke-width="2" stroke-linecap="square"/>
<rect id="Rectangle" opacity="0.6" x="5" y="94.0256" width="75.641" height="2.5641" fill="#BFBEBE"/>
<rect id="Rectangle_2" opacity="0.6" x="5" y="99.1539" width="84.6154" height="2.5641" fill="#A2A1A1"/>
<path id="Rectangle_3" opacity="0.6" fill-rule="evenodd" clip-rule="evenodd" d="M5 105.564H40.2746H96.0256V108.128H40.2753H5V105.564Z" fill="#838282"/>
<path id="Rectangle_4" opacity="0.6" fill-rule="evenodd" clip-rule="evenodd" d="M5 110.692H41.2682H98.5897V113.256H41.2689H5V110.692Z" fill="#656464"/>
<rect id="Rectangle_5" x="5" y="35.0513" width="150" height="37.1795" fill="#D8D8D8"/>
<rect id="Rectangle_6" x="137.051" y="15.8205" width="17.9487" height="8.97436" fill="#232323"/>
<path id="Buy" d="M143.068 19.4288V20.0635H143.775C143.901 20.0635 144.004 20.0401 144.082 19.9932C144.161 19.945 144.201 19.8604 144.201 19.7393C144.201 19.6052 144.149 19.5167 144.045 19.4737C143.955 19.4437 143.84 19.4288 143.701 19.4288H143.068ZM143.068 20.5401V21.3077H143.775C143.901 21.3077 144 21.2908 144.07 21.2569C144.198 21.1944 144.262 21.0746 144.262 20.8975C144.262 20.7478 144.2 20.6449 144.076 20.5889C144.007 20.5577 143.91 20.5414 143.785 20.5401H143.068ZM143.892 18.9288C144.245 18.934 144.495 19.0362 144.642 19.2354C144.731 19.3578 144.775 19.5043 144.775 19.6749C144.775 19.8506 144.731 19.9919 144.642 20.0987C144.593 20.1586 144.52 20.2133 144.424 20.2628C144.571 20.3161 144.681 20.4008 144.756 20.5167C144.831 20.6325 144.869 20.7732 144.869 20.9385C144.869 21.1091 144.826 21.2621 144.74 21.3975C144.685 21.4874 144.617 21.5629 144.535 21.6241C144.443 21.6944 144.333 21.7426 144.207 21.7686C144.082 21.7947 143.946 21.8077 143.799 21.8077H142.494V18.9288H143.892ZM145.885 19.6788V20.962C145.885 21.0831 145.899 21.1742 145.928 21.2354C145.978 21.3435 146.078 21.3975 146.226 21.3975C146.416 21.3975 146.547 21.3207 146.617 21.1671C146.653 21.0837 146.672 20.9737 146.672 20.837V19.6788H147.236V21.8077H146.695V21.5069C146.69 21.5134 146.677 21.5329 146.656 21.5655C146.635 21.598 146.61 21.6267 146.582 21.6514C146.495 21.7296 146.41 21.7829 146.328 21.8116C146.247 21.8402 146.152 21.8546 146.043 21.8546C145.728 21.8546 145.515 21.7413 145.406 21.5147C145.345 21.3897 145.314 21.2055 145.314 20.962V19.6788H145.885ZM147.861 22.2159L147.931 22.2198C147.986 22.2224 148.038 22.2204 148.088 22.2139C148.137 22.2074 148.179 22.1924 148.213 22.169C148.245 22.1469 148.275 22.1006 148.303 22.0303C148.331 21.96 148.343 21.9171 148.338 21.9014L147.556 19.6788H148.176L148.64 21.2491L149.08 19.6788H149.672L148.941 21.7725C148.801 22.1762 148.689 22.4262 148.607 22.5225C148.525 22.6202 148.361 22.669 148.115 22.669C148.066 22.669 148.026 22.6684 147.996 22.6671C147.966 22.6671 147.921 22.6651 147.861 22.6612V22.2159Z" fill="white"/>
<path id="$123" d="M111.553 21.9859C111.785 21.9566 111.953 21.9039 112.059 21.8277C112.243 21.6929 112.335 21.46 112.335 21.129C112.335 20.877 112.249 20.6778 112.076 20.5313C111.974 20.4464 111.799 20.3585 111.553 20.2676V21.9859ZM111.136 17.3936C110.881 17.3995 110.692 17.4683 110.569 17.6002C110.446 17.7291 110.384 17.9063 110.384 18.1319C110.384 18.378 110.477 18.5728 110.661 18.7164C110.764 18.7955 110.922 18.8687 111.136 18.9361V17.3936ZM111.562 23.8492H111.136V22.9747C110.559 22.9102 110.128 22.7842 109.844 22.5967C109.343 22.2598 109.097 21.6856 109.105 20.8741H110.292C110.333 21.2432 110.39 21.4908 110.463 21.6168C110.578 21.813 110.802 21.9405 111.136 21.9991V20.1226L110.78 20.0172C110.22 19.8531 109.825 19.6246 109.593 19.3316C109.365 19.0386 109.25 18.6856 109.25 18.2725C109.25 18.0001 109.294 17.7525 109.382 17.5298C109.473 17.3072 109.599 17.1153 109.76 16.9542C109.968 16.7462 110.2 16.6026 110.455 16.5235C110.61 16.4737 110.837 16.4371 111.136 16.4136V15.8292H111.553V16.4224C112.031 16.4605 112.406 16.5777 112.678 16.774C113.173 17.0875 113.43 17.5958 113.447 18.2989H112.291C112.268 18.0381 112.224 17.8477 112.16 17.7276C112.048 17.5196 111.846 17.4053 111.553 17.3848V19.0591C112.25 19.2994 112.719 19.5118 112.959 19.6964C113.355 20.004 113.553 20.4376 113.553 20.9971C113.553 21.7354 113.282 22.2715 112.74 22.6055C112.409 22.8106 112.016 22.9307 111.562 22.9659V23.8492ZM114.48 18.4131V17.5606C114.875 17.543 115.152 17.5167 115.311 17.4815C115.562 17.4258 115.768 17.3145 115.926 17.1475C116.034 17.0333 116.116 16.8809 116.172 16.6905C116.204 16.5762 116.22 16.4913 116.22 16.4356H117.262V22.8077H115.978V18.4131H114.48ZM119.147 22.8077C119.159 22.3506 119.257 21.9332 119.441 21.5552C119.62 21.1304 120.042 20.6807 120.707 20.2061C121.284 19.793 121.658 19.4971 121.828 19.3184C122.088 19.0401 122.219 18.7354 122.219 18.4044C122.219 18.1348 122.144 17.9107 121.995 17.732C121.845 17.5533 121.631 17.4639 121.353 17.4639C120.972 17.4639 120.713 17.606 120.575 17.8902C120.496 18.0543 120.449 18.315 120.435 18.6724H119.217C119.238 18.1304 119.336 17.6924 119.512 17.3585C119.846 16.7227 120.439 16.4048 121.291 16.4048C121.965 16.4048 122.501 16.5923 122.9 16.9673C123.298 17.3394 123.498 17.8331 123.498 18.4483C123.498 18.92 123.357 19.3389 123.076 19.7051C122.891 19.9483 122.588 20.2193 122.166 20.5181L121.665 20.8741C121.352 21.0967 121.136 21.2579 121.019 21.3575C120.905 21.4571 120.808 21.5728 120.729 21.7047H123.511V22.8077H119.147ZM125.343 20.8521C125.343 21.107 125.384 21.3179 125.466 21.4849C125.619 21.7925 125.895 21.9464 126.297 21.9464C126.543 21.9464 126.757 21.8629 126.938 21.6959C127.123 21.5259 127.215 21.2828 127.215 20.9664C127.215 20.5474 127.045 20.2676 126.706 20.127C126.512 20.0479 126.207 20.0084 125.791 20.0084V19.1119C126.199 19.106 126.483 19.0665 126.644 18.9932C126.922 18.8702 127.061 18.6212 127.061 18.2462C127.061 18.003 126.99 17.8052 126.846 17.6529C126.706 17.5005 126.506 17.4244 126.248 17.4244C125.953 17.4244 125.734 17.5181 125.594 17.7056C125.456 17.8931 125.39 18.1436 125.396 18.4571H124.227C124.239 18.1407 124.293 17.8404 124.39 17.5562C124.492 17.3072 124.653 17.0772 124.873 16.8663C125.037 16.7169 125.232 16.6026 125.457 16.5235C125.683 16.4444 125.96 16.4048 126.288 16.4048C126.897 16.4048 127.388 16.563 127.76 16.8795C128.135 17.1929 128.323 17.6148 128.323 18.1451C128.323 18.5201 128.211 18.8365 127.989 19.0943C127.848 19.2554 127.702 19.3653 127.549 19.4239C127.664 19.4239 127.828 19.522 128.041 19.7183C128.361 20.0142 128.52 20.4185 128.52 20.9312C128.52 21.4703 128.333 21.9449 127.958 22.355C127.586 22.7623 127.034 22.9659 126.301 22.9659C125.399 22.9659 124.772 22.6714 124.42 22.0826C124.236 21.7691 124.133 21.3589 124.113 20.8521H125.343Z" fill="#E10000"/>
<rect id="Rectangle_7" x="5" y="74.7949" width="48.7179" height="11.5385" fill="#343434"/>
<path id="Overview" d="M14.7745 81.386C15.0724 81.386 15.3084 81.2761 15.4825 81.0564C15.6583 80.8367 15.7462 80.5242 15.7462 80.1189C15.7462 79.7153 15.6583 79.4036 15.4825 79.1838C15.3084 78.9625 15.0724 78.8518 14.7745 78.8518C14.4767 78.8518 14.239 78.9617 14.0616 79.1814C13.8842 79.4011 13.7955 79.7136 13.7955 80.1189C13.7955 80.5242 13.8842 80.8367 14.0616 81.0564C14.239 81.2761 14.4767 81.386 14.7745 81.386ZM16.4981 80.1189C16.4981 80.7651 16.3167 81.2598 15.9537 81.6033C15.6819 81.8832 15.2888 82.0232 14.7745 82.0232C14.2602 82.0232 13.8671 81.8832 13.5953 81.6033C13.2307 81.2598 13.0484 80.7651 13.0484 80.1189C13.0484 79.4597 13.2307 78.9649 13.5953 78.6345C13.8671 78.3546 14.2602 78.2146 14.7745 78.2146C15.2888 78.2146 15.6819 78.3546 15.9537 78.6345C16.3167 78.9649 16.4981 79.4597 16.4981 80.1189ZM18.6588 79.262H19.4059L18.4464 81.9231H17.7115L16.7569 79.262H17.5382L18.0924 81.2249L18.6588 79.262ZM20.8512 79.7649C20.69 79.7649 20.5647 79.8153 20.4752 79.9163C20.3873 80.0172 20.332 80.1539 20.3092 80.3264H21.3907C21.3793 80.1425 21.3232 80.0033 21.2223 79.9089C21.123 79.8129 20.9993 79.7649 20.8512 79.7649ZM20.8512 79.1912C21.0725 79.1912 21.2719 79.2327 21.4493 79.3157C21.6267 79.3987 21.7732 79.5297 21.8888 79.7087C21.9929 79.8666 22.0605 80.0497 22.0914 80.2581C22.1093 80.3801 22.1166 80.5559 22.1134 80.7854H20.2921C20.3019 81.0523 20.3857 81.2395 20.5436 81.3469C20.6396 81.4137 20.7551 81.447 20.8902 81.447C21.0335 81.447 21.1498 81.4063 21.2394 81.325C21.2882 81.281 21.3313 81.22 21.3688 81.1418H22.0792C22.0613 81.2997 21.9791 81.46 21.8326 81.6228C21.6048 81.8816 21.2857 82.011 20.8756 82.011C20.537 82.011 20.2384 81.9019 19.9796 81.6838C19.7208 81.4657 19.5914 81.1109 19.5914 80.6194C19.5914 80.1588 19.7078 79.8056 19.9405 79.5598C20.1749 79.314 20.4785 79.1912 20.8512 79.1912ZM24.0299 79.1985C24.0429 79.1985 24.0535 79.1993 24.0616 79.2009C24.0714 79.2009 24.0917 79.2017 24.1227 79.2034V79.9163C24.0787 79.9114 24.0397 79.9081 24.0055 79.9065C23.9713 79.9049 23.9436 79.9041 23.9225 79.9041C23.6425 79.9041 23.4545 79.9952 23.3585 80.1775C23.3048 80.28 23.2779 80.4379 23.2779 80.6511V81.9231H22.5772V79.262H23.2413V79.7258C23.3487 79.5484 23.4423 79.4272 23.5221 79.3621C23.6523 79.253 23.8216 79.1985 24.0299 79.1985ZM26.1734 79.262H26.9205L25.961 81.9231H25.2262L24.2716 79.262H25.0528L25.607 81.2249L26.1734 79.262ZM28.0314 78.9446H27.3258V78.3025H28.0314V78.9446ZM27.3258 79.262H28.0314V81.9231H27.3258V79.262ZM29.7574 79.7649C29.5963 79.7649 29.471 79.8153 29.3814 79.9163C29.2936 80.0172 29.2382 80.1539 29.2154 80.3264H30.297C30.2856 80.1425 30.2294 80.0033 30.1285 79.9089C30.0292 79.8129 29.9055 79.7649 29.7574 79.7649ZM29.7574 79.1912C29.9788 79.1912 30.1782 79.2327 30.3556 79.3157C30.533 79.3987 30.6795 79.5297 30.795 79.7087C30.8992 79.8666 30.9667 80.0497 30.9977 80.2581C31.0156 80.3801 31.0229 80.5559 31.0196 80.7854H29.1983C29.2081 81.0523 29.2919 81.2395 29.4498 81.3469C29.5458 81.4137 29.6614 81.447 29.7965 81.447C29.9397 81.447 30.0561 81.4063 30.1456 81.325C30.1944 81.281 30.2376 81.22 30.275 81.1418H30.9855C30.9675 81.2997 30.8854 81.46 30.7389 81.6228C30.511 81.8816 30.192 82.011 29.7818 82.011C29.4433 82.011 29.1446 81.9019 28.8858 81.6838C28.6271 81.4657 28.4977 81.1109 28.4977 80.6194C28.4977 80.1588 28.614 79.8056 28.8468 79.5598C29.0812 79.314 29.3847 79.1912 29.7574 79.1912ZM32.7457 79.262H33.4513L33.8565 81.1785L34.2716 79.262H34.9967L34.2252 81.9231H33.5099L33.0924 79.9846L32.67 81.9231H31.9474L31.2003 79.262H31.9474L32.3624 81.1711L32.7457 79.262Z" fill="white"/>
<rect id="Rectangle_8" opacity="0.8" x="55" y="74.7949" width="48.7179" height="11.5385" fill="#8A8A8A"/>
<path id="Curriculum" d="M60.5719 80.1531C60.5719 79.5248 60.7404 79.0406 61.0773 78.7004C61.3703 78.4042 61.743 78.2561 62.1954 78.2561C62.8009 78.2561 63.2436 78.4547 63.5236 78.8518C63.6782 79.0748 63.7612 79.2986 63.7726 79.5232H63.0206C62.9718 79.3507 62.9092 79.2205 62.8327 79.1326C62.6959 78.9763 62.4933 78.8982 62.2247 78.8982C61.9513 78.8982 61.7357 79.0089 61.5778 79.2302C61.4199 79.45 61.341 79.7616 61.341 80.1653C61.341 80.5689 61.424 80.8717 61.59 81.0735C61.7576 81.2737 61.97 81.3738 62.2272 81.3738C62.4909 81.3738 62.6919 81.2875 62.8302 81.115C62.9067 81.0222 62.9702 80.8831 63.0206 80.6975H63.7653C63.7002 81.0898 63.5333 81.4088 63.2648 81.6545C62.9979 81.9003 62.6552 82.0232 62.237 82.0232C61.7194 82.0232 61.3125 81.8572 61.0163 81.5251C60.72 81.1915 60.5719 80.7341 60.5719 80.1531ZM64.9787 79.262V80.866C64.9787 81.0173 64.9966 81.1313 65.0324 81.2078C65.0958 81.3429 65.2204 81.4104 65.4059 81.4104C65.6435 81.4104 65.8063 81.3144 65.8942 81.1223C65.9398 81.0181 65.9625 80.8806 65.9625 80.7097V79.262H66.6681V81.9231H65.9918V81.5471C65.9853 81.5553 65.9691 81.5797 65.943 81.6204C65.917 81.6611 65.886 81.6969 65.8502 81.7278C65.7412 81.8254 65.6354 81.8922 65.5329 81.928C65.4319 81.9638 65.3131 81.9817 65.1764 81.9817C64.7825 81.9817 64.5172 81.8401 64.3805 81.5569C64.304 81.4006 64.2658 81.1703 64.2658 80.866V79.262H64.9787ZM68.7872 79.1985C68.8003 79.1985 68.8108 79.1993 68.819 79.2009C68.8288 79.2009 68.8491 79.2017 68.88 79.2034V79.9163C68.8361 79.9114 68.797 79.9081 68.7628 79.9065C68.7287 79.9049 68.701 79.9041 68.6798 79.9041C68.3999 79.9041 68.2119 79.9952 68.1159 80.1775C68.0621 80.28 68.0353 80.4379 68.0353 80.6511V81.9231H67.3346V79.262H67.9987V79.7258C68.1061 79.5484 68.1997 79.4272 68.2794 79.3621C68.4096 79.253 68.5789 79.1985 68.7872 79.1985ZM70.7355 79.1985C70.7485 79.1985 70.7591 79.1993 70.7672 79.2009C70.777 79.2009 70.7973 79.2017 70.8283 79.2034V79.9163C70.7843 79.9114 70.7453 79.9081 70.7111 79.9065C70.6769 79.9049 70.6492 79.9041 70.6281 79.9041C70.3481 79.9041 70.1601 79.9952 70.0641 80.1775C70.0104 80.28 69.9835 80.4379 69.9835 80.6511V81.9231H69.2829V79.262H69.9469V79.7258C70.0543 79.5484 70.1479 79.4272 70.2277 79.3621C70.3579 79.253 70.5272 79.1985 70.7355 79.1985ZM71.9538 78.9446H71.2482V78.3025H71.9538V78.9446ZM71.2482 79.262H71.9538V81.9231H71.2482V79.262ZM74.2194 80.2166C74.2064 80.1173 74.173 80.0278 74.1193 79.948C74.0412 79.8406 73.9199 79.7869 73.7555 79.7869C73.5211 79.7869 73.3608 79.9032 73.2746 80.136C73.229 80.2597 73.2062 80.4241 73.2062 80.6292C73.2062 80.8245 73.229 80.9815 73.2746 81.1003C73.3576 81.3217 73.5138 81.4324 73.7433 81.4324C73.9061 81.4324 74.0216 81.3884 74.09 81.3005C74.1583 81.2126 74.1998 81.0987 74.2145 80.9587H74.9249C74.9087 81.1703 74.8322 81.3705 74.6954 81.5593C74.4774 81.8637 74.1543 82.0159 73.7262 82.0159C73.2982 82.0159 72.9832 81.8889 72.7814 81.635C72.5796 81.3811 72.4787 81.0515 72.4787 80.6462C72.4787 80.1889 72.5901 79.8333 72.8131 79.5793C73.0361 79.3254 73.3437 79.1985 73.736 79.1985C74.0696 79.1985 74.3423 79.2734 74.5538 79.4231C74.7671 79.5728 74.8932 79.8373 74.9323 80.2166H74.2194ZM76.1066 79.262V80.866C76.1066 81.0173 76.1245 81.1313 76.1603 81.2078C76.2238 81.3429 76.3483 81.4104 76.5338 81.4104C76.7715 81.4104 76.9342 81.3144 77.0221 81.1223C77.0677 81.0181 77.0905 80.8806 77.0905 80.7097V79.262H77.796V81.9231H77.1198V81.5471C77.1133 81.5553 77.097 81.5797 77.0709 81.6204C77.0449 81.6611 77.014 81.6969 76.9782 81.7278C76.8691 81.8254 76.7633 81.8922 76.6608 81.928C76.5599 81.9638 76.4411 81.9817 76.3043 81.9817C75.9105 81.9817 75.6452 81.8401 75.5084 81.5569C75.4319 81.4006 75.3937 81.1703 75.3937 80.866V79.262H76.1066ZM79.1803 81.9231H78.4845V78.3245H79.1803V81.9231ZM80.5548 79.262V80.866C80.5548 81.0173 80.5727 81.1313 80.6085 81.2078C80.672 81.3429 80.7965 81.4104 80.9821 81.4104C81.2197 81.4104 81.3825 81.3144 81.4704 81.1223C81.5159 81.0181 81.5387 80.8806 81.5387 80.7097V79.262H82.2443V81.9231H81.568V81.5471C81.5615 81.5553 81.5452 81.5797 81.5192 81.6204C81.4931 81.6611 81.4622 81.6969 81.4264 81.7278C81.3174 81.8254 81.2116 81.8922 81.109 81.928C81.0081 81.9638 80.8893 81.9817 80.7526 81.9817C80.3587 81.9817 80.0934 81.8401 79.9567 81.5569C79.8802 81.4006 79.8419 81.1703 79.8419 80.866V79.262H80.5548ZM85.8917 79.2034C86.0089 79.2034 86.1245 79.2262 86.2384 79.2717C86.3524 79.3173 86.4557 79.3971 86.5485 79.511C86.6233 79.6038 86.6738 79.7177 86.6998 79.8528C86.7161 79.9423 86.7243 80.0733 86.7243 80.2458L86.7194 81.9231H86.0065V80.2288C86.0065 80.1278 85.9902 80.0448 85.9577 79.9797C85.8958 79.856 85.7819 79.7942 85.6159 79.7942C85.4238 79.7942 85.2912 79.8739 85.2179 80.0334C85.1805 80.1181 85.1618 80.2198 85.1618 80.3386V81.9231H84.4611V80.3386C84.4611 80.1807 84.4448 80.066 84.4122 79.9944C84.3537 79.8658 84.2389 79.8015 84.068 79.8015C83.8694 79.8015 83.736 79.8658 83.6676 79.9944C83.6302 80.0676 83.6115 80.1767 83.6115 80.3215V81.9231H82.9059V79.2668H83.5822V79.655C83.6684 79.5167 83.7498 79.4182 83.8263 79.3596C83.9614 79.2555 84.1364 79.2034 84.3512 79.2034C84.5547 79.2034 84.7191 79.2481 84.8444 79.3376C84.9453 79.4207 85.0218 79.5273 85.0739 79.6575C85.165 79.5012 85.2781 79.3865 85.4132 79.3132C85.5565 79.24 85.716 79.2034 85.8917 79.2034Z" fill="white"/>
<rect id="Rectangle_9" opacity="0.8" x="105" y="74.7949" width="50" height="11.5385" fill="#8A8A8A"/>
<path id="Review" d="M120.235 78.9495V79.9163H121.087C121.257 79.9163 121.384 79.8967 121.468 79.8577C121.618 79.7893 121.693 79.6542 121.693 79.4524C121.693 79.2343 121.62 79.0878 121.476 79.0129C121.394 78.9706 121.272 78.9495 121.109 78.9495H120.235ZM121.266 78.3245C121.518 78.3293 121.712 78.3603 121.847 78.4172C121.983 78.4742 122.099 78.558 122.193 78.6687C122.272 78.7598 122.333 78.8608 122.379 78.9714C122.425 79.0821 122.447 79.2083 122.447 79.3499C122.447 79.5208 122.404 79.6892 122.318 79.8552C122.232 80.0196 122.089 80.136 121.891 80.2043C122.057 80.2711 122.174 80.3663 122.242 80.49C122.312 80.6121 122.347 80.7992 122.347 81.0515V81.2932C122.347 81.4576 122.354 81.5691 122.367 81.6277C122.386 81.7205 122.432 81.7888 122.503 81.8328V81.9231H121.676C121.653 81.8433 121.637 81.7791 121.627 81.7302C121.607 81.6293 121.597 81.526 121.595 81.4202L121.59 81.0857C121.587 80.8562 121.545 80.7032 121.463 80.6267C121.384 80.5502 121.233 80.512 121.012 80.512H120.235V81.9231H119.501V78.3245H121.266ZM124.09 79.7649C123.929 79.7649 123.804 79.8153 123.714 79.9163C123.626 80.0172 123.571 80.1539 123.548 80.3264H124.63C124.619 80.1425 124.562 80.0033 124.461 79.9089C124.362 79.8129 124.238 79.7649 124.09 79.7649ZM124.09 79.1912C124.312 79.1912 124.511 79.2327 124.688 79.3157C124.866 79.3987 125.012 79.5297 125.128 79.7087C125.232 79.8666 125.3 80.0497 125.331 80.2581C125.348 80.3801 125.356 80.5559 125.353 80.7854H123.531C123.541 81.0523 123.625 81.2395 123.783 81.3469C123.879 81.4137 123.994 81.447 124.129 81.447C124.273 81.447 124.389 81.4063 124.479 81.325C124.527 81.281 124.57 81.22 124.608 81.1418H125.318C125.3 81.2997 125.218 81.46 125.072 81.6228C124.844 81.8816 124.525 82.011 124.115 82.011C123.776 82.011 123.478 81.9019 123.219 81.6838C122.96 81.4657 122.831 81.1109 122.831 80.6194C122.831 80.1588 122.947 79.8056 123.18 79.5598C123.414 79.314 123.718 79.1912 124.09 79.1912ZM127.464 79.262H128.211L127.252 81.9231H126.517L125.563 79.262H126.344L126.898 81.2249L127.464 79.262ZM129.322 78.9446H128.617V78.3025H129.322V78.9446ZM128.617 79.262H129.322V81.9231H128.617V79.262ZM131.048 79.7649C130.887 79.7649 130.762 79.8153 130.672 79.9163C130.584 80.0172 130.529 80.1539 130.506 80.3264H131.588C131.577 80.1425 131.52 80.0033 131.419 79.9089C131.32 79.8129 131.196 79.7649 131.048 79.7649ZM131.048 79.1912C131.27 79.1912 131.469 79.2327 131.647 79.3157C131.824 79.3987 131.97 79.5297 132.086 79.7087C132.19 79.8666 132.258 80.0497 132.289 80.2581C132.307 80.3801 132.314 80.5559 132.311 80.7854H130.489C130.499 81.0523 130.583 81.2395 130.741 81.3469C130.837 81.4137 130.952 81.447 131.087 81.447C131.231 81.447 131.347 81.4063 131.437 81.325C131.485 81.281 131.529 81.22 131.566 81.1418H132.276C132.258 81.2997 132.176 81.46 132.03 81.6228C131.802 81.8816 131.483 82.011 131.073 82.011C130.734 82.011 130.436 81.9019 130.177 81.6838C129.918 81.4657 129.789 81.1109 129.789 80.6194C129.789 80.1588 129.905 79.8056 130.138 79.5598C130.372 79.314 130.676 79.1912 131.048 79.1912ZM134.037 79.262H134.742L135.147 81.1785L135.563 79.262H136.288L135.516 81.9231H134.801L134.383 79.9846L133.961 81.9231H133.238L132.491 79.262H133.238L133.653 81.1711L134.037 79.262Z" fill="white"/>
<path id="Line 6" d="M127.38 97.2307H153.133" stroke="#979797" stroke-linecap="square"/>
<path id="Line 6_2" d="M127.38 102.359H153.133" stroke="#979797" stroke-linecap="square"/>
<path id="Line 6_3" d="M127.38 107.487H153.133" stroke="#979797" stroke-linecap="square"/>
<path id="Line 6_4" d="M127.38 112.615H153.133" stroke="#979797" stroke-linecap="square"/>
<path id="Line 7 Copy" d="M113.333 92.1026V113.897" stroke="#F0F0F0" stroke-width="0.5" stroke-linecap="square"/>
</g>
<defs>
<clipPath id="clip0_0_1">
<rect width="150" height="112" fill="white" transform="translate(5 3)"/>
</clipPath>
</defs>
</svg>
