<svg width="160" height="118" viewBox="0 0 160 118" fill="none" xmlns="http://www.w3.org/2000/svg">
<rect width="160" height="118" fill="white"/>
<g id="Single-2" clip-path="url(#clip0_0_1)">
<rect id="Rectangle" x="4" y="41.1795" width="103.846" height="14.1026" fill="#F4F4F4"/>
<g id="Rectangle_2" filter="url(#filter0_d_0_1)">
<rect x="111.692" y="4" width="42.3077" height="66.6667" fill="#F9F9F9"/>
</g>
<circle id="Oval" cx="11.6923" cy="47.5898" r="4.62821" fill="#979797" stroke="#979797"/>
<path id="Line 2" d="M23.2308 49.5129H42.4615" stroke="#717171" stroke-width="2" stroke-linecap="square"/>
<path id="Line 2_2" d="M54 49.5129H72.6652" stroke="#717171" stroke-width="2" stroke-linecap="square"/>
<path id="Line 2_3" d="M22.5897 44.3846H42.4615" stroke="#979797" stroke-linecap="square"/>
<path id="Line 2_4" d="M53.4809 44.3846H71.9487" stroke="#979797" stroke-linecap="square"/>
<path id="Line 6" d="M116.179 31.5641H144.385" stroke="#979797" stroke-linecap="square"/>
<path id="Line 6_2" d="M116.179 36.6923H144.385" stroke="#979797" stroke-linecap="square"/>
<path id="Line 6 Copy 2" d="M116.179 41.8205H144.385" stroke="#979797" stroke-linecap="square"/>
<path id="Line 6 Copy" d="M116.179 46.9487H144.385" stroke="#979797" stroke-linecap="square"/>
<path id="Line 6 Copy 4" d="M116.179 52.0769H144.385" stroke="#979797" stroke-linecap="square"/>
<path id="Line 6 Copy 3" d="M116.179 57.2051H144.385" stroke="#979797" stroke-linecap="square"/>
<rect id="Rectangle_3" opacity="0.6" x="5.28206" y="64.2564" width="75.641" height="2.5641" fill="#BFBEBE"/>
<rect id="Rectangle_4" opacity="0.6" x="5.28206" y="69.3846" width="85.8974" height="2.5641" fill="#A2A1A1"/>
<path id="Rectangle_5" opacity="0.6" fill-rule="evenodd" clip-rule="evenodd" d="M5.28206 75.7949H40.5566H96.3077V78.359H40.5573H5.28206V75.7949Z" fill="#838282"/>
<path id="Rectangle_6" opacity="0.6" fill-rule="evenodd" clip-rule="evenodd" d="M5.28206 80.9231H41.5503H98.8718V83.4872H41.551H5.28206V80.9231Z" fill="#656464"/>
<rect id="Rectangle_7" opacity="0.6" x="5.28206" y="91.1795" width="75.641" height="2.5641" fill="#BFBEBE"/>
<rect id="Rectangle_8" opacity="0.6" x="5.28206" y="96.3077" width="85.8974" height="2.5641" fill="#A2A1A1"/>
<path id="Rectangle_9" opacity="0.6" fill-rule="evenodd" clip-rule="evenodd" d="M5.28206 102.718H40.5566H96.3077V105.282H40.5573H5.28206V102.718Z" fill="#838282"/>
<path id="Rectangle_10" opacity="0.6" fill-rule="evenodd" clip-rule="evenodd" d="M5.28206 107.846H41.5503H98.8718V110.41H41.551H5.28206V107.846Z" fill="#656464"/>
<rect id="Rectangle_11" x="4" y="4" width="103.846" height="37.1795" fill="#D8D8D8"/>
<rect id="Rectangle_12" x="120.667" y="16.8205" width="23.0769" height="8.97436" fill="#232323"/>
<path id="Buy" d="M127.966 19.7236V20.3584H128.673C128.799 20.3584 128.901 20.335 128.979 20.2881C129.059 20.2399 129.098 20.1553 129.098 20.0342C129.098 19.9001 129.046 19.8115 128.942 19.7686C128.852 19.7386 128.738 19.7236 128.598 19.7236H127.966ZM127.966 20.835V21.6025H128.673C128.799 21.6025 128.897 21.5856 128.968 21.5518C129.095 21.4893 129.159 21.3695 129.159 21.1924C129.159 21.0426 129.097 20.9398 128.973 20.8838C128.904 20.8525 128.807 20.8363 128.682 20.835H127.966ZM128.79 19.2236C129.143 19.2288 129.393 19.3311 129.54 19.5303C129.628 19.6527 129.673 19.7992 129.673 19.9697C129.673 20.1455 129.628 20.2868 129.54 20.3936C129.49 20.4535 129.417 20.5081 129.321 20.5576C129.468 20.611 129.579 20.6956 129.653 20.8115C129.729 20.9274 129.766 21.068 129.766 21.2334C129.766 21.404 129.723 21.557 129.637 21.6924C129.583 21.7822 129.514 21.8577 129.432 21.9189C129.34 21.9893 129.231 22.0374 129.104 22.0635C128.979 22.0895 128.843 22.1025 128.696 22.1025H127.391V19.2236H128.79ZM130.782 19.9736V21.2568C130.782 21.3779 130.796 21.4691 130.825 21.5303C130.876 21.6383 130.975 21.6924 131.124 21.6924C131.314 21.6924 131.444 21.6156 131.514 21.4619C131.551 21.3786 131.569 21.2686 131.569 21.1318V19.9736H132.134V22.1025H131.593V21.8018C131.587 21.8083 131.574 21.8278 131.553 21.8604C131.533 21.8929 131.508 21.9215 131.479 21.9463C131.392 22.0244 131.307 22.0778 131.225 22.1064C131.145 22.1351 131.05 22.1494 130.94 22.1494C130.625 22.1494 130.413 22.0361 130.303 21.8096C130.242 21.6846 130.212 21.5003 130.212 21.2568V19.9736H130.782ZM132.759 22.5107L132.829 22.5146C132.884 22.5173 132.936 22.5153 132.985 22.5088C133.035 22.5023 133.076 22.4873 133.11 22.4639C133.143 22.4417 133.173 22.3955 133.2 22.3252C133.229 22.2549 133.24 22.2119 133.235 22.1963L132.454 19.9736H133.073L133.538 21.5439L133.977 19.9736H134.569L133.839 22.0674C133.698 22.471 133.587 22.721 133.505 22.8174C133.423 22.915 133.259 22.9639 133.012 22.9639C132.963 22.9639 132.923 22.9632 132.893 22.9619C132.863 22.9619 132.818 22.96 132.759 22.9561V22.5107Z" fill="white"/>
<path id="$123" d="M125.336 13.0532C125.516 13.0304 125.647 12.9894 125.729 12.9301C125.873 12.8253 125.945 12.6441 125.945 12.3867C125.945 12.1907 125.877 12.0357 125.743 11.9218C125.663 11.8557 125.528 11.7874 125.336 11.7167V13.0532ZM125.012 9.48138C124.813 9.48594 124.666 9.53949 124.571 9.64203C124.475 9.74229 124.427 9.88015 124.427 10.0556C124.427 10.247 124.499 10.3985 124.642 10.5102C124.722 10.5717 124.845 10.6287 125.012 10.6811V9.48138ZM125.343 14.5024H125.012V13.8222C124.563 13.7721 124.228 13.6741 124.007 13.5283C123.617 13.2662 123.426 12.8196 123.432 12.1884H124.355C124.387 12.4755 124.432 12.6681 124.489 12.7661C124.577 12.9187 124.752 13.0178 125.012 13.0634V11.6039L124.735 11.5219C124.299 11.3943 123.992 11.2166 123.812 10.9887C123.634 10.7608 123.545 10.4863 123.545 10.165C123.545 9.95306 123.579 9.76052 123.648 9.58734C123.718 9.41416 123.816 9.26491 123.942 9.13959C124.103 8.9778 124.284 8.86615 124.482 8.80463C124.603 8.76589 124.779 8.73741 125.012 8.71918V8.26459H125.336V8.72601C125.708 8.75564 125.999 8.84678 126.211 8.99945C126.596 9.24327 126.796 9.63861 126.809 10.1855H125.91C125.892 9.98269 125.858 9.83457 125.808 9.74115C125.721 9.57937 125.564 9.4905 125.336 9.47455V10.7768C125.879 10.9636 126.243 11.1288 126.43 11.2724C126.738 11.5117 126.891 11.8489 126.891 12.2841C126.891 12.8583 126.681 13.2753 126.259 13.5351C126.002 13.6946 125.696 13.788 125.343 13.8154V14.5024ZM127.613 10.2744V9.61127C127.92 9.5976 128.136 9.57709 128.259 9.54974C128.455 9.50645 128.614 9.41986 128.737 9.28998C128.821 9.20111 128.885 9.08262 128.929 8.93451C128.954 8.84564 128.966 8.77956 128.966 8.73627H129.776V13.6923H128.778V10.2744H127.613ZM131.242 13.6923C131.252 13.3369 131.328 13.0121 131.471 12.7182C131.61 12.3878 131.939 12.038 132.456 11.6689C132.905 11.3476 133.195 11.1175 133.327 10.9785C133.53 10.762 133.632 10.525 133.632 10.2675C133.632 10.0579 133.574 9.88357 133.457 9.74457C133.341 9.60557 133.175 9.53607 132.958 9.53607C132.662 9.53607 132.46 9.64659 132.353 9.86761C132.292 9.99522 132.255 10.198 132.244 10.476H131.297C131.313 10.0545 131.389 9.71381 131.526 9.45404C131.786 8.95957 132.247 8.71234 132.91 8.71234C133.435 8.71234 133.852 8.85817 134.161 9.14984C134.471 9.43923 134.626 9.82318 134.626 10.3017C134.626 10.6686 134.517 10.9944 134.298 11.2792C134.155 11.4684 133.919 11.6791 133.591 11.9116L133.201 12.1884C132.957 12.3616 132.79 12.4869 132.699 12.5644C132.61 12.6419 132.534 12.7319 132.473 12.8344H134.637V13.6923H131.242ZM136.062 12.1713C136.062 12.3696 136.094 12.5336 136.158 12.6635C136.276 12.9028 136.491 13.0224 136.804 13.0224C136.995 13.0224 137.161 12.9575 137.303 12.8276C137.446 12.6954 137.518 12.5063 137.518 12.2602C137.518 11.9343 137.386 11.7167 137.121 11.6074C136.971 11.5458 136.734 11.5151 136.41 11.5151V10.8178C136.727 10.8133 136.948 10.7825 137.074 10.7255C137.29 10.6298 137.398 10.4361 137.398 10.1445C137.398 9.95534 137.342 9.80153 137.231 9.68304C137.121 9.56455 136.966 9.50531 136.766 9.50531C136.536 9.50531 136.366 9.57823 136.257 9.72406C136.15 9.86989 136.098 10.0647 136.103 10.3085H135.194C135.203 10.0624 135.245 9.82888 135.32 9.60785C135.4 9.41416 135.525 9.23529 135.696 9.07123C135.824 8.95502 135.975 8.86615 136.151 8.80463C136.326 8.7431 136.541 8.71234 136.797 8.71234C137.271 8.71234 137.652 8.83539 137.942 9.08148C138.233 9.3253 138.379 9.65342 138.379 10.0659C138.379 10.3575 138.293 10.6036 138.119 10.8041C138.01 10.9295 137.896 11.0149 137.778 11.0605C137.867 11.0605 137.994 11.1368 138.16 11.2895C138.409 11.5196 138.533 11.8341 138.533 12.2328C138.533 12.6521 138.387 13.0213 138.096 13.3403C137.806 13.657 137.377 13.8154 136.807 13.8154C136.105 13.8154 135.617 13.5864 135.344 13.1284C135.201 12.8845 135.121 12.5655 135.105 12.1713H136.062Z" fill="#E10000"/>
<circle id="Oval_2" cx="121.308" cy="64.8974" r="1.42308" fill="#979797" stroke="#979797"/>
<circle id="Oval_3" cx="127.718" cy="64.8974" r="1.42308" fill="#979797" stroke="#979797"/>
<circle id="Oval_4" cx="134.128" cy="64.8974" r="1.42308" fill="#979797" stroke="#979797"/>
<circle id="Oval_5" cx="140.538" cy="64.8974" r="1.42308" fill="#979797" stroke="#979797"/>
</g>
<defs>
<filter id="filter0_d_0_1" x="108.692" y="1" width="48.3077" height="72.6667" filterUnits="userSpaceOnUse" color-interpolation-filters="sRGB">
<feFlood flood-opacity="0" result="BackgroundImageFix"/>
<feColorMatrix in="SourceAlpha" type="matrix" values="0 0 0 0 0 0 0 0 0 0 0 0 0 0 0 0 0 0 127 0" result="hardAlpha"/>
<feOffset/>
<feGaussianBlur stdDeviation="1.5"/>
<feColorMatrix type="matrix" values="0 0 0 0 0 0 0 0 0 0 0 0 0 0 0 0 0 0 0.220471 0"/>
<feBlend mode="normal" in2="BackgroundImageFix" result="effect1_dropShadow_0_1"/>
<feBlend mode="normal" in="SourceGraphic" in2="effect1_dropShadow_0_1" result="shape"/>
</filter>
<clipPath id="clip0_0_1">
<rect width="150" height="106.41" fill="white" transform="translate(4 4)"/>
</clipPath>
</defs>
</svg>
