<svg width="160" height="118" viewBox="0 0 160 118" fill="none" xmlns="http://www.w3.org/2000/svg">
<rect width="160" height="118" fill="white"/>
<g id="Single-4" clip-path="url(#clip0_0_1)">
<rect id="Rectangle" x="-7" y="-3" width="170" height="50.6107" fill="#D8D8D8"/>
<circle id="Oval" cx="11.168" cy="34.6336" r="4.69084" fill="#979797" stroke="#979797"/>
<path id="Line 2" d="M22.8474 36.5801H42.313" stroke="#717171" stroke-width="2" stroke-linecap="square"/>
<path id="Line 2_2" d="M53.9924 36.5801H72.8855" stroke="#717171" stroke-width="2" stroke-linecap="square"/>
<path id="Line 2_3" d="M22.1985 31.3893H42.313" stroke="#979797" stroke-linecap="square"/>
<path id="Line 2_4" d="M53.4669 31.3893H72.1603" stroke="#979797" stroke-linecap="square"/>
<rect id="Rectangle_2" opacity="0.6" x="5.97711" y="55.0992" width="76.5649" height="2.59542" fill="#BFBEBE"/>
<rect id="Rectangle_3" x="5.97711" y="16.4656" width="76.5649" height="2.59542" fill="#959595"/>
<rect id="Rectangle_4" x="5.97711" y="21.6565" width="67.4809" height="2.59542" fill="#959595"/>
<rect id="Rectangle_5" opacity="0.6" x="5.97711" y="60.2901" width="86.9466" height="2.59542" fill="#A2A1A1"/>
<path id="Rectangle_6" opacity="0.6" fill-rule="evenodd" clip-rule="evenodd" d="M5.97711 66.7786H41.6825H98.1145V69.374H41.6832H5.97711V66.7786Z" fill="#838282"/>
<path id="Rectangle_7" opacity="0.6" fill-rule="evenodd" clip-rule="evenodd" d="M5.97711 73.8626H42.6883H100.71V76.458H42.689H5.97711V73.8626Z" fill="#656464"/>
<path id="Rectangle_8" fill-rule="evenodd" clip-rule="evenodd" d="M5.97711 6.08398H42.6883H100.71V9.97711H42.689H5.97711V6.08398Z" fill="#010101"/>
<rect id="Rectangle_9" opacity="0.6" x="5.97711" y="86.3511" width="76.5649" height="2.59542" fill="#BFBEBE"/>
<rect id="Rectangle_10" opacity="0.6" x="5.97711" y="91.542" width="86.9466" height="2.59542" fill="#A2A1A1"/>
<path id="Rectangle_11" opacity="0.6" fill-rule="evenodd" clip-rule="evenodd" d="M5.97711 98.0305H41.6825H98.1145V100.626H41.6832H5.97711V98.0305Z" fill="#838282"/>
<path id="Rectangle_12" opacity="0.6" fill-rule="evenodd" clip-rule="evenodd" d="M5.97711 103.221H42.6883H100.71V105.817H42.689H5.97711V103.221Z" fill="#656464"/>
<rect id="Rectangle_13" x="111.592" y="22.1565" width="41.8244" height="66.4809" fill="#FCFCFC" stroke="#B7B7B7"/>
<rect id="Rectangle_14" x="116.282" y="50.2061" width="15.5725" height="6.48855" fill="#232323"/>
<path id="Line 6" d="M116.931 65.1298H145.481" stroke="#979797" stroke-linecap="square"/>
<path id="Line 6_2" d="M116.931 61.2366H145.481" stroke="#979797" stroke-linecap="square"/>
<rect id="Rectangle_15" x="114.985" y="24.2519" width="35.0382" height="16.8702" fill="#777777"/>
<path id="Line 6 Copy 2" d="M116.931 69.0229H145.481" stroke="#979797" stroke-linecap="square"/>
<path id="Line 6 Copy" d="M116.931 72.916H145.481" stroke="#979797" stroke-linecap="square"/>
<path id="Line 6 Copy 4" d="M116.931 76.8091H145.481" stroke="#979797" stroke-linecap="square"/>
<path id="Buy" d="M119.544 51.4219V51.898H120.075C120.169 51.898 120.246 51.8804 120.305 51.8453C120.364 51.8091 120.394 51.7457 120.394 51.6548C120.394 51.5543 120.355 51.4879 120.277 51.4556C120.209 51.4332 120.123 51.4219 120.019 51.4219H119.544ZM119.544 52.2554V52.8311H120.075C120.169 52.8311 120.243 52.8184 120.296 52.793C120.392 52.7462 120.439 52.6563 120.439 52.5235C120.439 52.4112 120.393 52.334 120.3 52.2921C120.248 52.2686 120.176 52.2564 120.082 52.2554H119.544ZM120.163 51.0469C120.427 51.0508 120.615 51.1275 120.725 51.2769C120.791 51.3687 120.825 51.4786 120.825 51.6065C120.825 51.7383 120.791 51.8443 120.725 51.9244C120.688 51.9693 120.633 52.0103 120.561 52.0474C120.671 52.0875 120.754 52.1509 120.81 52.2379C120.867 52.3248 120.895 52.4302 120.895 52.5543C120.895 52.6822 120.863 52.7969 120.798 52.8985C120.757 52.9659 120.706 53.0225 120.644 53.0684C120.575 53.1212 120.493 53.1573 120.398 53.1768C120.305 53.1964 120.203 53.2061 120.092 53.2061H119.114V51.0469H120.163ZM121.657 51.6094V52.5718C121.657 52.6627 121.667 52.731 121.689 52.7769C121.727 52.858 121.802 52.8985 121.913 52.8985C122.056 52.8985 122.153 52.8409 122.206 52.7256C122.233 52.6631 122.247 52.5806 122.247 52.4781V51.6094H122.67V53.2061H122.265V52.9805C122.261 52.9854 122.251 53.0001 122.235 53.0245C122.22 53.0489 122.201 53.0704 122.18 53.0889C122.114 53.1475 122.051 53.1876 121.989 53.209C121.929 53.2305 121.857 53.2413 121.775 53.2413C121.539 53.2413 121.38 53.1563 121.298 52.9864C121.252 52.8926 121.229 52.7545 121.229 52.5718V51.6094H121.657ZM123.139 53.5123L123.192 53.5152C123.233 53.5172 123.272 53.5157 123.309 53.5108C123.346 53.5059 123.377 53.4947 123.403 53.4771C123.427 53.4605 123.45 53.4258 123.47 53.3731C123.492 53.3204 123.5 53.2881 123.497 53.2764L122.911 51.6094H123.375L123.724 52.7872L124.053 51.6094H124.497L123.949 53.1797C123.844 53.4825 123.76 53.67 123.699 53.7422C123.637 53.8155 123.514 53.8521 123.33 53.8521C123.292 53.8521 123.263 53.8516 123.24 53.8506C123.218 53.8506 123.184 53.8492 123.139 53.8463V53.5123Z" fill="white"/>
<path id="$123" d="M117.786 46.5587C117.915 46.5424 118.009 46.5131 118.067 46.4708C118.17 46.396 118.221 46.2666 118.221 46.0826C118.221 45.9427 118.173 45.832 118.077 45.7506C118.02 45.7034 117.923 45.6546 117.786 45.6041V46.5587ZM117.554 44.0074C117.413 44.0107 117.308 44.049 117.24 44.1222C117.171 44.1938 117.137 44.2923 117.137 44.4176C117.137 44.5543 117.188 44.6626 117.291 44.7423C117.348 44.7863 117.436 44.8269 117.554 44.8644V44.0074ZM117.791 47.5939H117.554V47.108C117.234 47.0722 116.995 47.0022 116.837 46.8981C116.558 46.7109 116.422 46.3919 116.427 45.941H117.086C117.108 46.1461 117.14 46.2837 117.181 46.3536C117.244 46.4627 117.369 46.5335 117.554 46.566V45.5236L117.357 45.465C117.046 45.3738 116.826 45.2469 116.698 45.0841C116.571 44.9213 116.507 44.7252 116.507 44.4957C116.507 44.3444 116.531 44.2068 116.58 44.0831C116.631 43.9594 116.701 43.8528 116.79 43.7633C116.906 43.6477 117.034 43.568 117.176 43.524C117.262 43.4964 117.388 43.476 117.554 43.463V43.1383H117.786V43.4679C118.052 43.4891 118.26 43.5542 118.411 43.6632C118.686 43.8374 118.829 44.1198 118.839 44.5104H118.197C118.184 44.3655 118.159 44.2597 118.123 44.193C118.061 44.0774 117.949 44.014 117.786 44.0026V44.9327C118.174 45.0662 118.434 45.1842 118.568 45.2867C118.787 45.4576 118.897 45.6985 118.897 46.0094C118.897 46.4196 118.747 46.7174 118.446 46.903C118.262 47.0169 118.044 47.0836 117.791 47.1031V47.5939ZM119.412 44.5739V44.1002C119.632 44.0905 119.786 44.0758 119.874 44.0563C120.014 44.0253 120.128 43.9635 120.216 43.8707C120.276 43.8073 120.321 43.7226 120.352 43.6168C120.37 43.5533 120.379 43.5061 120.379 43.4752H120.958V47.0153H120.245V44.5739H119.412ZM122.005 47.0153C122.012 46.7614 122.066 46.5294 122.169 46.3195C122.268 46.0835 122.502 45.8336 122.872 45.5699C123.192 45.3405 123.4 45.1761 123.494 45.0768C123.639 44.9222 123.712 44.7529 123.712 44.569C123.712 44.4192 123.67 44.2947 123.587 44.1954C123.504 44.0962 123.385 44.0465 123.231 44.0465C123.019 44.0465 122.875 44.1254 122.799 44.2833C122.755 44.3745 122.729 44.5193 122.72 44.7179H122.044C122.056 44.4168 122.11 44.1735 122.208 43.9879C122.393 43.6347 122.723 43.4581 123.197 43.4581C123.571 43.4581 123.869 43.5623 124.09 43.7706C124.311 43.9773 124.422 44.2516 124.422 44.5934C124.422 44.8554 124.344 45.0882 124.188 45.2916C124.085 45.4267 123.917 45.5773 123.682 45.7433L123.404 45.941C123.23 46.0647 123.11 46.1543 123.045 46.2096C122.982 46.2649 122.928 46.3292 122.884 46.4025H124.429V47.0153H122.005ZM125.448 45.9288C125.448 46.0704 125.47 46.1876 125.516 46.2804C125.601 46.4513 125.754 46.5367 125.977 46.5367C126.114 46.5367 126.233 46.4904 126.334 46.3976C126.436 46.3032 126.488 46.1681 126.488 45.9923C126.488 45.7596 126.393 45.6041 126.204 45.526C126.097 45.4821 125.928 45.4601 125.697 45.4601V44.962C125.923 44.9588 126.081 44.9368 126.17 44.8961C126.325 44.8278 126.402 44.6894 126.402 44.4811C126.402 44.346 126.362 44.2361 126.282 44.1515C126.204 44.0669 126.094 44.0245 125.95 44.0245C125.786 44.0245 125.665 44.0766 125.587 44.1808C125.51 44.285 125.474 44.4241 125.477 44.5983H124.827C124.834 44.4225 124.864 44.2557 124.918 44.0978C124.975 43.9594 125.064 43.8317 125.186 43.7145C125.277 43.6315 125.386 43.568 125.511 43.524C125.636 43.4801 125.79 43.4581 125.972 43.4581C126.311 43.4581 126.584 43.546 126.79 43.7218C126.999 43.896 127.103 44.1303 127.103 44.4249C127.103 44.6333 127.041 44.809 126.917 44.9523C126.839 45.0418 126.758 45.1028 126.673 45.1354C126.737 45.1354 126.828 45.1899 126.947 45.299C127.124 45.4633 127.213 45.6879 127.213 45.9728C127.213 46.2723 127.108 46.5359 126.9 46.7638C126.693 46.99 126.387 47.1031 125.98 47.1031C125.478 47.1031 125.13 46.9396 124.935 46.6124C124.832 46.4383 124.775 46.2104 124.764 45.9288H125.448Z" fill="black"/>
<circle id="Oval_2" cx="120.824" cy="83.2977" r="1.44656" fill="#979797" stroke="#979797"/>
<circle id="Oval_3" cx="127.313" cy="83.2977" r="1.44656" fill="#979797" stroke="#979797"/>
<circle id="Oval_4" cx="133.802" cy="83.2977" r="1.44656" fill="#979797" stroke="#979797"/>
<circle id="Oval_5" cx="140.29" cy="83.2977" r="1.44656" fill="#979797" stroke="#979797"/>
</g>
<defs>
<clipPath id="clip0_0_1">
<rect width="170" height="109" fill="white" transform="translate(-7 -3)"/>
</clipPath>
</defs>
</svg>
