<?xml version="1.0" encoding="UTF-8"?>
<svg width="160px" height="85px" viewBox="0 0 160 85" version="1.1" xmlns="http://www.w3.org/2000/svg" xmlns:xlink="http://www.w3.org/1999/xlink" style="background: #FFFFFF;">
    <title>switch-2</title>
    <g id="Page-1" stroke="none" stroke-width="1" fill="none" fill-rule="evenodd">
        <g id="Switch-Layout-2" transform="translate(4.000000, 5.000000)">
            <rect id="Rectangle" fill="#F9F9F9" x="0" y="0" width="152" height="16"></rect>
            <text id="Header" font-family="Helvetica-Bold, Helvetica" font-size="8" font-weight="bold" fill="#767676">
                <tspan x="64" y="11">HEADER</tspan>
            </text>
            <rect id="Rectangle" fill="#F9F9F9" x="0" y="59" width="152" height="16"></rect>
            <text id="Header" font-family="Helvetica-Bold, Helvetica" font-size="8" font-weight="bold" fill="#767676">
                <tspan x="65" y="69">FOOTER</tspan>
            </text>
            <rect id="Rectangle" fill="#424343" x="2" y="25" width="7" height="8"></rect>
            <rect id="Rectangle" fill="#424343" x="14" y="25" width="4" height="2"></rect>
            <rect id="Rectangle" fill="#424343" x="14" y="28" width="4" height="2"></rect>
            <rect id="Rectangle" fill="#424343" x="14" y="31" width="4" height="2"></rect>
            <rect id="Rectangle" fill="#424343" x="11" y="25" width="2" height="2"></rect>
            <rect id="Rectangle" fill="#424343" x="11" y="28" width="2" height="2"></rect>
            <rect id="Rectangle" fill="#424343" x="11" y="31" width="2" height="2"></rect>
            <rect id="Rectangle" fill="#D8D8D8" x="0" y="41" width="49" height="2"></rect>
            <rect id="Rectangle" fill="#D8D8D8" x="0" y="47" width="78" height="2"></rect>
            <rect id="Rectangle" fill="#D8D8D8" transform="translate(57.000000, 55.000000) scale(1, -1) translate(-57.000000, -55.000000) " x="0" y="54" width="114" height="2"></rect>
            <polygon id="Rectangle" fill="#424343" points="97 25 117 25 117 33 107.719391 33 97 33"></polygon>
            <polygon id="Rectangle" fill="#424343" points="120 31 152 31 152 33 137.151025 33 120 33"></polygon>
            <circle id="Oval" stroke="#424343" cx="122.5" cy="27.5" r="2"></circle>
            <text id="S" font-family="Helvetica-Bold, Helvetica" font-size="5" font-weight="bold" fill="#000000">
                <tspan x="21" y="31">Showing 1-9 of 18 results</tspan>
            </text>
            <text id="Search….." font-family="Helvetica-Bold, Helvetica" font-size="5" font-weight="bold" fill="#000000">
                <tspan x="127" y="29">Search…..</tspan>
            </text>
        </g>
    </g>
</svg>