<?xml version="1.0" ?><!DOCTYPE svg  PUBLIC '-//W3C//DTD SVG 1.1//EN'  'http://www.w3.org/Graphics/SVG/1.1/DTD/svg11.dtd'>
	<svg width="36" height="35" viewBox="0 0 36 35" fill="none" xmlns="http://www.w3.org/2000/svg">
	<path fill-rule="evenodd" clip-rule="evenodd" d="M17.6042 3.5C13.869 3.5 10.2869 4.975 7.64575 7.60051C5.00461 10.226 3.52083 13.787 3.52083 17.5C3.52083 21.213 5.00461 24.774 7.64575 27.3995C10.2869 30.025 13.869 31.5 17.6042 31.5C21.3393 31.5 24.9214 30.025 27.5626 27.3995C30.2037 24.774 31.6875 21.213 31.6875 17.5C31.6875 13.787 30.2037 10.226 27.5626 7.60051C24.9214 4.975 21.3393 3.5 17.6042 3.5ZM0 17.5C0 7.83475 7.88139 0 17.6042 0C27.3269 0 35.2083 7.83475 35.2083 17.5C35.2083 27.1652 27.3269 35 17.6042 35C7.88139 35 0 27.1652 0 17.5ZM11.4427 14C11.0994 14 10.6611 14.217 10.3759 14.784C10.1646 15.1952 9.7983 15.5068 9.35692 15.6507C8.91553 15.7946 8.4348 15.7593 8.0195 15.5524C7.6042 15.3455 7.28799 14.9839 7.13978 14.5462C6.99157 14.1086 7.02338 13.6304 7.22827 13.216C7.99581 11.69 9.52913 10.5 11.4427 10.5C13.3563 10.5 14.8878 11.69 15.6571 13.216C15.862 13.6304 15.8938 14.1086 15.7456 14.5462C15.5974 14.9839 15.2812 15.3455 14.8659 15.5524C14.4506 15.7593 13.9699 15.7946 13.5285 15.6507C13.0871 15.5068 12.7208 15.1952 12.5095 14.784C12.2243 14.217 11.7877 14 11.4427 14ZM23.7656 14C23.4223 14 22.984 14.217 22.6988 14.784C22.5963 14.9913 22.4536 15.1763 22.2788 15.3285C22.1041 15.4807 21.9007 15.597 21.6806 15.6707C21.4604 15.7443 21.2277 15.774 20.9959 15.7578C20.7642 15.7417 20.5379 15.6801 20.3302 15.5767C20.1225 15.4732 19.9374 15.3299 19.7857 15.155C19.634 14.9801 19.5186 14.777 19.4462 14.5576C19.3738 14.3381 19.3458 14.1066 19.3638 13.8764C19.3818 13.6461 19.4455 13.4217 19.5512 13.216C20.3205 11.69 21.8521 10.5 23.7656 10.5C25.6792 10.5 27.2108 11.69 27.9801 13.216C28.185 13.6304 28.2168 14.1086 28.0686 14.5462C27.9203 14.9839 27.6041 15.3455 27.1888 15.5524C26.7735 15.7593 26.2928 15.7946 25.8514 15.6507C25.41 15.5068 25.0438 15.1952 24.8324 14.784C24.5473 14.217 24.1107 14 23.7656 14ZM11.6258 21.5915C11.7788 21.4191 11.9645 21.2783 12.1722 21.1772C12.38 21.0762 12.6057 21.0168 12.8365 21.0025C13.0674 20.9882 13.2988 21.0192 13.5176 21.0939C13.7363 21.1685 13.9382 21.2853 14.1115 21.4375C15.0445 22.2565 16.2645 22.75 17.6042 22.75C18.9438 22.75 20.1656 22.2565 21.0968 21.4375C21.447 21.1302 21.9056 20.9739 22.3718 21.0027C22.8379 21.0316 23.2735 21.2434 23.5825 21.5915C23.8916 21.9396 24.0489 22.3955 24.0199 22.8589C23.9908 23.3223 23.7778 23.7552 23.4276 24.0625C21.8207 25.4747 19.749 26.2529 17.6042 26.25C15.4593 26.2529 13.3876 25.4747 11.7807 24.0625C11.6072 23.9104 11.4656 23.7258 11.364 23.5193C11.2623 23.3128 11.2026 23.0884 11.1882 22.8589C11.1738 22.6294 11.205 22.3994 11.2801 22.1819C11.3552 21.9644 11.4727 21.7638 11.6258 21.5915Z" fill="#0FA958"/>
</svg>
