<svg id="Layer_1" data-name="Layer 1" xmlns="http://www.w3.org/2000/svg" xmlns:xlink="http://www.w3.org/1999/xlink" viewBox="0 0 68.4 28.09"><defs><style>.cls-1{fill:none;}.cls-2{clip-path:url(#clip-path);}.cls-3{fill:#1a1a1a;}</style><clipPath id="clip-path" transform="translate(0 0)"><rect class="cls-1" width="68.4" height="28.09"/></clipPath></defs><title>Icon Hover</title><g class="cls-2"><path class="cls-3" d="M68.4,18.29c-3.51,2.66-7.74.25-10.22-1.71a15.2,15.2,0,0,0-8.84-3.38C38,12.81,36.65,25.64,36.65,25.64s7.27-12.14,15.87-7.92a13.23,13.23,0,0,1,7,10.37,7.53,7.53,0,0,0-.44-7.19c2.19,1,5.78,2,9.27-2.61" transform="translate(0 0)"/><path class="cls-3" d="M0,18.29c3.5,2.66,7.74.25,10.22-1.71a15.2,15.2,0,0,1,8.83-3.38c11.37-.39,12.7,12.44,12.7,12.44S24.47,13.5,15.87,17.72a13.26,13.26,0,0,0-7,10.37,7.53,7.53,0,0,1,.44-7.19c-2.18,1-5.78,2-9.26-2.61" transform="translate(0 0)"/><path class="cls-3" d="M44.86,10.47c-4-.78-7.68,4.18-9.93,8.17L34.19,20c-.21-.44-.46-.91-.73-1.37-2.24-4-5.91-9-9.92-8.19,3.13-4.86,8-2.34,10.65,5.58,2.66-7.92,7.53-10.44,10.67-5.58" transform="translate(0 0)"/><path class="cls-3" d="M32.64,5.69C32.18,3.27,34.2,0,34.2,0s2,3.27,1.56,5.69a1.58,1.58,0,0,1-3.12,0" transform="translate(0 0)"/></g></svg>